<svg version="1.1" xmlns="http://www.w3.org/2000/svg" xmlns:xlink="http://www.w3.org/1999/xlink" width="14.45871" height="22.1883" viewBox="0,0,14.45871,22.1883"><defs><radialGradient cx="241.14258" cy="173.7954" r="33.07645" gradientUnits="userSpaceOnUse" id="color-1"><stop offset="0" stop-color="#b9b9b9"/><stop offset="1" stop-color="#b8b8b8"/></radialGradient></defs><g transform="translate(-233.91451,-168.90535)"><g data-paper-data="{&quot;isPaintingLayer&quot;:true}" fill="url(#color-1)" fill-rule="nonzero" stroke="#000000" stroke-width="1.0995" stroke-linecap="butt" stroke-linejoin="miter" stroke-miterlimit="10" stroke-dasharray="" stroke-dashoffset="0" style="mix-blend-mode: normal"><path d="M245.93778,170.8645c1.25357,0.92684 1.88568,2.26964 1.88569,4.0455c-0.00002,0.91482 -0.20135,1.75676 -0.5843,2.4795c-0.38295,0.72274 -1.03233,1.47637 -1.93881,2.2968l-0.90301,0.783c-0.64649,0.56346 -1.05935,1.0304 -1.24828,1.3572c-0.19261,0.32439 -0.31872,0.67906 -0.31871,1.0701v0.6264c0.00103,0.00867 -0.00103,0.01743 0,0.0261c0.00103,0.00867 0.00103,0.01743 0,0.0261l-0.02656,0.0261l-0.02656,0.0261h-0.02656h-0.02656h-5.17902h-0.02656h-0.02656l-0.02656,-0.0261l-0.02656,-0.0261c-0.00103,-0.00867 0.00103,-0.01743 0,-0.0261c-0.00103,-0.00867 -0.00103,-0.01743 0,-0.0261v-0.6786c-0.00001,-0.76686 0.15246,-1.4416 0.47806,-2.0358c0.32785,-0.6078 0.99738,-1.36827 2.01849,-2.2707l0.92957,-0.783c0.53945,-0.47043 0.92809,-0.92434 1.1686,-1.3311c0.24928,-0.40598 0.37182,-0.79915 0.37183,-1.2006c-0.00001,-0.61446 -0.23162,-1.09967 -0.66398,-1.4355c-0.43457,-0.34616 -1.02584,-0.52198 -1.83258,-0.522c-0.76012,0.00002 -1.60575,0.16181 -2.49655,0.4698c-0.8906,0.29888 -1.81775,0.75666 -2.7887,1.3572h-0.02656h-0.02656h-0.02656h-0.02656l-0.02656,-0.0261l-0.02656,-0.0261c-0.00103,-0.00867 0.00103,-0.01743 0,-0.0261c-0.00103,-0.00867 -0.00103,-0.01743 0,-0.0261v-4.3065c-0.00103,-0.00867 0.00103,-0.01743 0,-0.0261c-0.00103,-0.00867 -0.00103,-0.01743 0,-0.0261l0.02656,-0.0261l0.02656,-0.0261h0.02656c1.16421,-0.38627 2.22364,-0.65103 3.18709,-0.8352c0.96344,-0.18417 1.88865,-0.28707 2.7887,-0.2871c2.35314,0.00003 4.16429,0.47312 5.41805,1.4094zM237.51855,185.4544h0.02656h5.17902h0.02656h0.02656l0.02656,0.0261l0.02656,0.0261c0.00103,0.00867 -0.00103,0.01743 0,0.0261c0.00103,0.00867 0.00103,0.01743 0,0.0261v4.8807c0.00103,0.00867 -0.00103,0.01743 0,0.0261c0.00103,0.00867 0.00103,0.01743 0,0.0261l-0.02656,0.0261l-0.02656,0.0261h-0.02656h-0.02656h-5.17902h-0.02656h-0.02656l-0.02656,-0.0261l-0.02656,-0.0261c-0.00103,-0.00867 0.00103,-0.01743 0,-0.0261c-0.00103,-0.00867 -0.00103,-0.01743 0,-0.0261v-4.8807c-0.00103,-0.00867 0.00103,-0.01743 0,-0.0261c-0.00103,-0.00867 -0.00103,-0.01743 0,-0.0261l0.02656,-0.0261l0.02656,-0.0261z"/></g></g></svg>